<?xml version="1.0" encoding="utf-8"?>
<!-- Generator: Adobe Illustrator 17.1.0, SVG Export Plug-In . SVG Version: 6.00 Build 0)  -->
<!DOCTYPE svg PUBLIC "-//W3C//DTD SVG 1.1//EN" "http://www.w3.org/Graphics/SVG/1.1/DTD/svg11.dtd">
<svg version="1.1" id="Layer_1" xmlns="http://www.w3.org/2000/svg" xmlns:xlink="http://www.w3.org/1999/xlink" x="0px" y="0px"
	 viewBox="0.8 26.1 124.2 28.6" enable-background="new 0.8 26.1 124.2 28.6" xml:space="preserve">
<g>
	<path fill="#FFFFFF" d="M1.4,54V32.6c0-2.3,1.9-4.2,4.2-4.2h4.5c0.4,0,0.8,0.4,0.8,0.8c0,0.4-0.4,0.8-0.8,0.8H5.6
		c-1.5,0-2.7,1.2-2.7,2.7V54H1.4z"/>
	<path fill="#FFFFFF" d="M31.9,54V32.6c0-1.5-1.2-2.7-2.7-2.7h-4.8c-0.4,0-0.8-0.4-0.8-0.8c0-0.4,0.4-0.8,0.8-0.8h4.8
		c2.3,0,4.2,1.9,4.2,4.2V54H31.9z"/>
	<path fill="#FFFFFF" d="M24.4,47.6c-0.2,0-0.3,0-0.5-0.1l-6.7-4.8l-6.7,4.8c-0.2,0.2-0.6,0.2-0.8,0.1c-0.3-0.1-0.4-0.4-0.4-0.7
		V27.6c0-0.4,0.4-0.8,0.8-0.8h14.4c0.4,0,0.8,0.4,0.8,0.8v9.9c0,0,0,0,0,0v9.2c0,0.3-0.2,0.6-0.4,0.7C24.7,47.6,24.6,47.6,24.4,47.6
		z M17.3,40.9c0.2,0,0.3,0,0.5,0.1l5.9,4.2v-7.7c0,0,0,0,0,0v-9.1H10.9v16.8l5.9-4.2C16.9,40.9,17.1,40.9,17.3,40.9z"/>
	<path fill="#FFFFFF" d="M14.5,39.7c-0.2,0-0.5-0.1-0.6-0.2c-0.3-0.3-0.5-0.7-0.4-1.1l0.4-2.5l-1.8-1.7c-0.3-0.3-0.4-0.7-0.3-1.1
		c0.1-0.4,0.5-0.7,0.9-0.8l2.5-0.4l1.1-2.2c0.2-0.4,0.6-0.6,1-0.6l0,0c0.4,0,0.8,0.2,1,0.6l1.1,2.2l2.5,0.4c0.4,0.1,0.8,0.4,0.9,0.8
		c0.1,0.4,0,0.8-0.3,1.1l-1.8,1.7l0.4,2.5c0.1,0.4-0.1,0.8-0.4,1.1c-0.3,0.2-0.8,0.3-1.2,0.1l-2.2-1.2l-2.2,1.2
		C14.9,39.6,14.7,39.7,14.5,39.7z M13.9,33.7l1.4,1.4c0.2,0.2,0.3,0.4,0.2,0.7l-0.3,1.9l1.7-0.9c0.2-0.1,0.5-0.1,0.7,0l1.7,0.9
		L19,35.8c0-0.3,0-0.5,0.2-0.7l1.4-1.4l-1.9-0.3c-0.3,0-0.5-0.2-0.6-0.4l-0.9-1.8L16.4,33c-0.1,0.2-0.3,0.4-0.6,0.4L13.9,33.7z"/>
	<path fill="#FFFFFF" d="M25.8,29.9c-0.2,0-0.4-0.1-0.6-0.3l-1.3-1.5c-0.3-0.3-0.3-0.8,0.1-1.1s0.8-0.3,1.1,0.1l1.3,1.5
		c0.3,0.3,0.3,0.8-0.1,1.1C26.1,29.8,26,29.9,25.8,29.9z"/>
	<path fill="#FFFFFF" d="M8.8,29.9c-0.2,0-0.4-0.1-0.5-0.2c-0.3-0.3-0.4-0.8-0.1-1.1l1.3-1.5c0.3-0.3,0.8-0.4,1.1-0.1
		c0.3,0.3,0.4,0.8,0.1,1.1l-1.3,1.5C9.2,29.8,9,29.9,8.8,29.9z"/>
	<path fill="#FFFFFF" d="M49.6,42.6v-1.2h-5.8v-3.8h5.7v-1.2h-5.7v-3.5h5.8v-1.2h-7.2v11H49.6z"/>
	<path fill="#FFFFFF" d="M56.8,42.6l4.4-11h-1.6l-3.7,9.5l-3.7-9.5h-1.6l4.4,11H56.8z"/>
	<path fill="#FFFFFF" d="M69.8,42.6v-1.2H64v-3.8h5.7v-1.2H64v-3.5h5.8v-1.2h-7.2v11H69.8z"/>
	<path fill="#FFFFFF" d="M81.1,42.6v-11h-1.4v8.6l-6.3-8.6H72v11h1.4v-8.8l6.4,8.8H81.1z"/>
	<path fill="#FFFFFF" d="M87.8,42.6v-9.8h3.5v-1.2h-8.3v1.2h3.5v9.8H87.8z"/>
	<path fill="#FFFFFF" d="M102.2,42.6v-11h-1.4v4.7h-6.4v-4.7h-1.4v11h1.4v-5h6.4v5H102.2z"/>
	<path fill="#FFFFFF" d="M109.3,42.7c3,0,4.5-1.7,4.5-4.5v-6.7h-1.4v6.7c0,2-1.1,3.3-3.1,3.3c-2,0-3.1-1.3-3.1-3.3v-6.7h-1.4v6.7
		C104.8,41,106.3,42.7,109.3,42.7z"/>
	<path fill="#FFFFFF" d="M121.4,42.6c2,0,3.2-1.2,3.2-3c0-1.3-1-2.5-2.1-2.7c1-0.2,1.9-1.1,1.9-2.5c0-1.6-1.2-2.8-3.1-2.8h-4.9v11
		H121.4z M121,36.3h-3.3v-3.5h3.3c1.2,0,1.9,0.8,1.9,1.8C122.9,35.6,122.3,36.3,121,36.3z M121.1,41.3h-3.4v-3.8h3.4
		c1.3,0,2,0.9,2,1.9C123.1,40.6,122.4,41.3,121.1,41.3z"/>
</g>
</svg>
