<?xml version="1.0" encoding="UTF-8" standalone="no"?>
<svg
   xmlns:dc="http://purl.org/dc/elements/1.1/"
   xmlns:cc="http://creativecommons.org/ns#"
   xmlns:rdf="http://www.w3.org/1999/02/22-rdf-syntax-ns#"
   xmlns:svg="http://www.w3.org/2000/svg"
   xmlns="http://www.w3.org/2000/svg"
   version="1.1"
   id="svg2"
   xml:space="preserve"
   width="192"
   height="48"
   viewBox="0 0 192 48"><metadata
     id="metadata8"><rdf:RDF><cc:Work
         rdf:about=""><dc:format>image/svg+xml</dc:format><dc:type
           rdf:resource="http://purl.org/dc/dcmitype/StillImage" /><dc:title></dc:title></cc:Work></rdf:RDF></metadata><defs
     id="defs6" /><g
     id="g10"
     transform="matrix(0.20568889,0,0,-0.20568946,51.571097,56.321682)"><g
       id="g12"
       transform="scale(0.1)"><path
         d="M 1132.35,743.23 C 1041.82,640.379 945.547,592.48 829.387,592.48 622.473,592.48 454.109,766.988 454.109,981.5 v 3.461 c 0,216.229 164.075,385.599 373.536,385.599 114.535,0 209.885,-44.83 300.105,-141.1 l 19.15,-20.45 67.05,62.54 -19.42,20.53 c -78.87,83.65 -183.97,169.14 -365.143,169.14 -127.492,0 -246.328,-50.33 -334.59,-141.74 C 407.871,1229.47 360,1110.06 360,983.25 v -3.469 c 0,-263.551 209.797,-477.972 467.645,-477.972 147.257,0 269.255,59.023 372.995,180.492 l 17.43,20.429 -66.61,62.239 -19.11,-21.739"
         style="fill:#62676c;fill-opacity:1;fill-rule:nonzero;stroke:none"
         id="path14" /><path
         d="m 1479.88,1275.96 v 164.59 h -92.41 V 522.488 h 92.41 v 474.571 c 0,155.941 121.11,373.501 318.4,373.501 h 36.7 v 90.42 l -31.41,0.25 c -147.01,0 -257.73,-81.67 -323.69,-185.27"
         style="fill:#62676c;fill-opacity:1;fill-rule:nonzero;stroke:none"
         id="path16" /><path
         d="M 2633.38,1440.53 V 928.07 c 0,-213.269 -109.76,-335.59 -301.14,-335.59 -191.37,0 -301.16,122.321 -301.16,335.59 v 512.46 h -92.37 V 924.621 c 0,-260.812 149.46,-422.812 390.09,-422.812 h 6.9 c 240.6,0 390.05,162 390.05,422.812 v 515.909 h -92.37"
         style="fill:#62676c;fill-opacity:1;fill-rule:nonzero;stroke:none"
         id="path18" /><path
         d="M 3340.99,2737.12 V 2121.31 H 3960 v -89.63 h -708.62 v 706.51 l 89.61,-1.07"
         style="fill:#61c4d6;fill-opacity:1;fill-rule:nonzero;stroke:none"
         id="path20" /><path
         d="m 3051,2121.31 v 433.35 l 89.69,-0.26 v -522.72 h -530.11 v 89.63 H 3051"
         style="fill:#2c80b0;fill-opacity:1;fill-rule:nonzero;stroke:none"
         id="path22" /><path
         d="m 3777.18,1921.34 v -89.68 H 3340.99 V 962.84 h -89.61 v 958.5 h 525.8"
         style="fill:#e77e16;fill-opacity:1;fill-rule:nonzero;stroke:none"
         id="path24" /><path
         d="m 3140.71,1921.34 v -461.06 l -0.02,-251 H 3051 v 622.4 h -620.51 v 89.66 h 710.22"
         style="fill:#fbbf18;fill-opacity:1;fill-rule:nonzero;stroke:none"
         id="path26" /><path
         d="m 3506.58,1000 c 6.96,0.12 10.44,3.24 10.44,8.4 0,5.52 -3.48,8.03 -10.8,8.03 -0.12,0 -7.19,0 -7.19,0 v -16.668 z m -7.43,-20.629 h -6 v 42.459 c 0,0 13.55,0 13.67,0 10.67,0 16.19,-4.92 16.19,-13.07 0,-6.24 -3.36,-10.319 -8.39,-12.24 l 10.67,-17.149 h -6.96 l -9.71,15.711 -9.47,-0.48 z m 8.15,56.849 c -19.79,0 -35.74,-16.43 -35.74,-36.1 0,-19.671 15.95,-35.858 35.74,-35.858 19.79,0 35.74,16.187 35.74,35.858 0,19.67 -15.95,36.1 -35.74,36.1 z m -39.22,-36.1 c 0,21.71 17.51,39.34 39.22,39.34 21.71,0 39.22,-17.63 39.22,-39.34 0,-21.581 -17.51,-39.222 -39.22,-39.222 -21.71,0 -39.22,17.641 -39.22,39.222"
         style="fill:#62676c;fill-opacity:1;fill-rule:nonzero;stroke:none"
         id="path28" /></g></g></svg>